<svg width="109" height="123" viewBox="0 0 109 123" fill="none" xmlns="http://www.w3.org/2000/svg">
<path fill-rule="evenodd" clip-rule="evenodd" d="M94.98 23.6554C94.89 23.0354 94.35 22.6954 93.9 22.6554C93.45 22.6154 84.71 22.4854 84.71 22.4854C84.71 22.4854 77.39 15.3854 76.67 14.6554C75.95 13.9354 74.54 14.1554 73.99 14.3154C73.98 14.3154 72.62 14.7454 70.31 15.4554C69.93 14.2054 69.36 12.6754 68.55 11.1354C65.95 6.16538 62.13 3.53538 57.52 3.52538C57.51 3.52538 57.51 3.52538 57.5 3.52538C57.18 3.52538 56.86 3.55538 56.54 3.58538C56.4 3.42538 56.27 3.26538 56.12 3.10538C54.11 0.955377 51.54 -0.0846226 48.45 0.00537737C42.5 0.175377 36.57 4.47538 31.76 12.1154C28.38 17.4854 25.8 24.2354 25.07 29.4654C18.24 31.5854 13.46 33.0654 13.35 33.0954C9.9 34.1754 9.79 34.2854 9.34 37.5354C9.03 39.9854 0 109.795 0 109.795L75.65 122.875L108.44 114.725C108.44 114.725 95.06 24.2754 94.98 23.6554ZM66.52 16.6254C64.78 17.1654 62.8 17.7754 60.65 18.4454C60.61 15.4354 60.25 11.2354 58.84 7.61538C63.36 8.46538 65.58 13.5754 66.52 16.6254ZM56.69 19.6754C52.73 20.9054 48.4 22.2454 44.06 23.5854C45.28 18.9154 47.6 14.2554 50.44 11.2054C51.5 10.0654 52.98 8.80538 54.73 8.08538C56.38 11.5154 56.73 16.3854 56.69 19.6754ZM48.58 3.96538C49.98 3.93538 51.15 4.24538 52.16 4.90538C50.55 5.73538 49 6.93538 47.54 8.49538C43.76 12.5554 40.86 18.8454 39.71 24.9254C36.11 26.0354 32.58 27.1354 29.34 28.1354C31.38 18.5754 39.4 4.22538 48.58 3.96538Z" fill="#854C9D"/>
<path fill-rule="evenodd" clip-rule="evenodd" d="M93.9 22.6554C93.45 22.6154 84.71 22.4854 84.71 22.4854C84.71 22.4854 77.39 15.3854 76.67 14.6554C76.4 14.3854 76.04 14.2454 75.65 14.1854V122.865L108.43 114.715C108.43 114.715 95.05 24.2754 94.97 23.6554C94.9 23.0354 94.35 22.6954 93.9 22.6554Z" fill="#673E85"/>
<path d="M39 91.9954C43.5489 91.9954 47.9958 90.6465 51.7781 88.1192C55.5604 85.5919 58.5084 81.9998 60.2492 77.7971C61.99 73.5944 62.4455 68.9699 61.5581 64.5083C60.6706 60.0467 58.4801 55.9485 55.2634 52.7319C52.0468 49.5153 47.9486 47.3248 43.4871 46.4373C39.0255 45.5499 34.401 46.0053 30.1983 47.7462C25.9956 49.487 22.4035 52.4349 19.8762 56.2173C17.3489 59.9996 16 64.4464 16 68.9954C16.0058 75.0936 18.4309 80.9403 22.743 85.2524C27.0551 89.5645 32.9018 91.9895 39 91.9954ZM44.1484 70.7646H33.8516C32.7025 70.7628 31.6011 70.3055 30.7886 69.493C29.9761 68.6805 29.5188 67.579 29.5169 66.43V61.2816C29.5151 60.1298 29.9706 59.0243 30.7834 58.2082C31.5962 57.3921 32.6998 56.9321 33.8516 56.9292H37.2308V54.8415C37.2323 54.3733 37.4193 53.9247 37.7509 53.5941C38.0826 53.2635 38.5317 53.0779 39 53.0779C39.4683 53.0779 39.9174 53.2635 40.2491 53.5941C40.5807 53.9247 40.7677 54.3733 40.7692 54.8415V56.9292H44.1484C45.3002 56.9321 46.4038 57.3921 47.2166 58.2082C48.0294 59.0243 48.4849 60.1297 48.4831 61.2816C48.4831 61.7508 48.2966 62.2008 47.9649 62.5326C47.6331 62.8644 47.183 63.0508 46.7138 63.0508C46.2446 63.0508 45.7946 62.8644 45.4628 62.5326C45.131 62.2008 44.9446 61.7508 44.9446 61.2816C44.9461 61.0683 44.8633 60.863 44.7142 60.7106C44.565 60.5581 44.3617 60.4708 44.1484 60.4677H33.8516C33.6383 60.4708 33.435 60.5581 33.2858 60.7106C33.1367 60.8631 33.0539 61.0683 33.0554 61.2816V66.43C33.055 66.5346 33.0753 66.6384 33.1151 66.7352C33.155 66.8319 33.2136 66.9199 33.2876 66.9939C33.3617 67.0679 33.4496 67.1266 33.5464 67.1664C33.6432 67.2063 33.7469 67.2266 33.8516 67.2261H44.1484C45.2975 67.228 46.3989 67.6852 47.2114 68.4977C48.0239 69.3102 48.4812 70.4117 48.4831 71.5608V76.7093C48.4849 77.8611 48.0294 78.9665 47.2166 79.7826C46.4038 80.5987 45.3002 81.0588 44.1484 81.0616H40.7692V83.1492C40.7699 83.382 40.7247 83.6127 40.6361 83.828C40.5476 84.0433 40.4174 84.239 40.253 84.4039C40.0886 84.5688 39.8934 84.6996 39.6783 84.7889C39.4633 84.8781 39.2328 84.9241 39 84.9241C38.7672 84.9241 38.5367 84.8781 38.3216 84.7889C38.1066 84.6996 37.9113 84.5688 37.747 84.4039C37.5826 84.239 37.4524 84.0433 37.3638 83.828C37.2752 83.6127 37.23 83.382 37.2308 83.1492V81.0615H33.8516C32.6998 81.0587 31.5963 80.5987 30.7835 79.7826C29.9707 78.9665 29.5151 77.8611 29.5169 76.7093C29.5184 76.241 29.7055 75.7925 30.0371 75.4619C30.3687 75.1313 30.8179 74.9457 31.2862 74.9457C31.7544 74.9457 32.2036 75.1313 32.5352 75.4619C32.8669 75.7925 33.0539 76.241 33.0554 76.7093C33.0538 76.9226 33.1367 77.1278 33.2858 77.2803C33.4349 77.4327 33.6383 77.52 33.8516 77.5232H44.1484C44.3616 77.5201 44.565 77.4327 44.7142 77.2803C44.8633 77.1278 44.9461 76.9226 44.9446 76.7093V71.5608C44.945 71.4561 44.9247 71.3524 44.8848 71.2556C44.845 71.1588 44.7864 71.0709 44.7123 70.9968C44.6383 70.9228 44.5504 70.8642 44.4536 70.8243C44.3568 70.7845 44.2531 70.7642 44.1484 70.7646Z" fill="white"/>
</svg>
